<?xml version="1.0" encoding="utf-8"?>
<!-- Generator: Adobe Illustrator 16.0.3, SVG Export Plug-In . SVG Version: 6.00 Build 0)  -->
<!DOCTYPE svg PUBLIC "-//W3C//DTD SVG 1.1//EN" "http://www.w3.org/Graphics/SVG/1.1/DTD/svg11.dtd">
<svg version="1.1" id="Layer_1" xmlns="http://www.w3.org/2000/svg" xmlns:xlink="http://www.w3.org/1999/xlink" x="0px" y="0px"
	 width="17px" height="18px" viewBox="0 0 17 18" enable-background="new 0 0 17 18" xml:space="preserve">
<g>
	<path fill="#fff" d="M8.5,18c-1.26,0-2.281-0.971-2.281-2.166V2.167C6.22,0.97,7.241,0,8.5,0l0,0c1.26,0,2.281,0.97,2.281,2.167v13.667
		C10.781,17.029,9.76,18,8.5,18L8.5,18z"/>
	<path fill="#fff" d="M2.281,18C1.021,18,0,17.029,0,15.834V6.106C0,4.91,1.021,3.939,2.281,3.939l0,0c1.259,0,2.28,0.97,2.28,2.167v9.728
		C4.561,17.029,3.54,18,2.281,18L2.281,18z"/>
	<path fill="#fff" d="M14.721,18c-1.26,0-2.281-0.971-2.281-2.166v-5.787c0-1.198,1.021-2.167,2.281-2.167l0,0c1.258,0,2.279,0.97,2.279,2.167
		v5.787C17,17.029,15.979,18,14.721,18L14.721,18z"/>
</g>
</svg>
