<?xml version="1.0" encoding="utf-8"?>
<!-- Generator: Adobe Illustrator 16.0.3, SVG Export Plug-In . SVG Version: 6.00 Build 0)  -->
<!DOCTYPE svg PUBLIC "-//W3C//DTD SVG 1.1//EN" "http://www.w3.org/Graphics/SVG/1.1/DTD/svg11.dtd">
<svg version="1.1" id="Layer_1" xmlns="http://www.w3.org/2000/svg" xmlns:xlink="http://www.w3.org/1999/xlink" x="0px" y="0px"
	 width="17px" height="17px" viewBox="0 0 17 17" enable-background="new 0 0 17 17" xml:space="preserve">
<path fill="#fff" d="M12.221,8.5l4.008-4.007c1.027-1.028,1.029-2.694,0-3.722c-1.027-1.028-2.693-1.028-3.721,0L8.5,4.778L4.493,0.771
	c-1.028-1.028-2.694-1.028-3.722,0c-1.027,1.028-1.027,2.694,0,3.722L4.778,8.5l-4.008,4.008c-1.027,1.027-1.027,2.693,0,3.721
	c1.027,1.027,2.693,1.027,3.721,0L8.5,12.221l4.008,4.008c1.027,1.027,2.693,1.027,3.721,0s1.027-2.693,0-3.721L12.221,8.5z"/>
</svg>
