<?xml version="1.0" encoding="utf-8"?>
<!-- Generator: Adobe Illustrator 16.0.3, SVG Export Plug-In . SVG Version: 6.00 Build 0)  -->
<!DOCTYPE svg PUBLIC "-//W3C//DTD SVG 1.1//EN" "http://www.w3.org/Graphics/SVG/1.1/DTD/svg11.dtd">
<svg version="1.1" id="Layer_1" xmlns="http://www.w3.org/2000/svg" xmlns:xlink="http://www.w3.org/1999/xlink" x="0px" y="0px"
	 width="64px" height="64px" viewBox="0 0 64 64" enable-background="new 0 0 64 64" xml:space="preserve">
<g>
	<g>
		<path fill="#E53935" d="M45.744,28.979L26.787,18.033c-2.364-1.365-5.32,0.341-5.32,3.071v21.891c0,2.73,2.956,4.437,5.32,3.071
			l18.958-10.945C48.109,33.756,48.109,30.343,45.744,28.979z"/>
	</g>
	<g>
		<path fill="#E53935" d="M32,64.05c-4.319,0-8.51-0.847-12.457-2.516c-3.811-1.612-7.233-3.919-10.171-6.857
			c-2.938-2.938-5.245-6.359-6.857-10.17C0.847,40.56,0,36.369,0,32.05c0-4.319,0.846-8.51,2.516-12.457
			c1.612-3.811,3.919-7.233,6.857-10.171s6.36-5.245,10.171-6.857C23.491,0.896,27.682,0.05,32,0.05
			c4.32,0,8.509,0.846,12.457,2.516c3.811,1.612,7.232,3.919,10.17,6.857c2.939,2.938,5.246,6.36,6.857,10.171
			C63.154,23.54,64,27.731,64,32.05c0,4.319-0.846,8.51-2.516,12.457c-1.611,3.811-3.918,7.232-6.857,10.17
			c-2.938,2.938-6.359,5.245-10.17,6.857C40.51,63.203,36.32,64.05,32,64.05z M32,4.57C16.848,4.57,4.521,16.897,4.521,32.05
			S16.848,59.529,32,59.529c15.152,0,27.48-12.327,27.48-27.479S47.152,4.57,32,4.57z"/>
	</g>
</g>
</svg>
